<svg width="47" height="40" viewBox="0 0 47 40" fill="none" xmlns="http://www.w3.org/2000/svg">
<path d="M36.9782 40H33.3378C33.0945 39.9958 32.858 39.9218 32.6582 39.7875H36.2987C36.4985 39.9218 36.735 39.9958 36.9782 40Z" fill="#858585"/>
<path d="M36.2983 39.7874H32.6578L28.8291 37.3101H32.4695L36.2983 39.7874Z" fill="#808080"/>
<path d="M32.4702 37.3101H28.8297C28.2745 37.1364 27.9131 37.0658 27.6113 37.0658H31.2518C31.5536 37.0658 31.915 37.1364 32.4702 37.3101Z" fill="#858585"/>
<path d="M29.3006 1.78297C29.38 1.73144 29.4592 1.6796 29.5399 1.63013C29.5876 1.60089 29.6364 1.57352 29.6846 1.54501C29.7578 1.50165 29.8307 1.45772 29.9049 1.41605C29.9576 1.38644 30.0114 1.35874 30.0647 1.32998C30.136 1.29147 30.2069 1.25231 30.2791 1.21536C30.3129 1.19806 30.3473 1.18191 30.3812 1.16496C30.4673 1.12199 30.5537 1.07955 30.6409 1.03881C30.6859 1.01778 30.7314 0.997733 30.7768 0.977303C30.8544 0.942332 30.9322 0.907877 31.0106 0.87468C31.0594 0.854049 31.1084 0.833993 31.1575 0.814049C31.2343 0.782805 31.3116 0.752419 31.3892 0.722891C31.4387 0.704034 31.4883 0.685281 31.5382 0.66713C31.6185 0.637898 31.6993 0.609989 31.7803 0.582604C31.8274 0.566664 31.8744 0.550314 31.9218 0.535003C32.0148 0.504955 32.1085 0.476751 32.2024 0.449137C32.2381 0.438652 32.2734 0.4273 32.3092 0.417174C32.439 0.380411 32.5697 0.345955 32.7011 0.313806C32.7275 0.307363 32.7543 0.301973 32.7807 0.295721C32.8884 0.270305 32.9964 0.245866 33.105 0.223662C33.1312 0.21831 33.1575 0.213394 33.1838 0.208223C33.2942 0.186482 33.4051 0.166389 33.5164 0.147946C33.5373 0.144489 33.5582 0.140647 33.5791 0.137307C33.7044 0.117358 33.8302 0.0996575 33.9566 0.0842063C33.9857 0.0805958 34.0149 0.0773379 34.0441 0.073959C34.1614 0.0603696 34.2791 0.0485559 34.3972 0.0385181C34.4109 0.0373812 34.4245 0.0358707 34.4382 0.0347854C34.5664 0.0246023 34.6952 0.0172329 34.8242 0.0115403C34.8549 0.0101908 34.8856 0.00899151 34.9163 0.00794239C35.0471 0.00326557 35.1781 4.76837e-05 35.3096 4.76837e-05H31.6691C31.5376 4.76837e-05 31.4066 0.00326662 31.2758 0.00794239C31.2451 0.00904133 31.2144 0.0101845 31.1837 0.0115403C31.0547 0.0172392 30.9259 0.0245928 30.7977 0.0347854C30.784 0.035877 30.7704 0.0373812 30.7567 0.0385181C30.6386 0.0483475 30.521 0.0603685 30.4036 0.0739506C30.3744 0.0773295 30.3452 0.0805937 30.3161 0.0842042C30.1898 0.0998532 30.064 0.117554 29.9387 0.137305C29.9177 0.140645 29.8968 0.144487 29.8759 0.147944C29.7646 0.16633 29.6537 0.186422 29.5433 0.208221C29.5171 0.213392 29.4907 0.218302 29.4645 0.223659C29.4479 0.227052 29.4312 0.229962 29.4147 0.233431C29.3227 0.252667 29.2315 0.274183 29.1403 0.295719C29.1138 0.301971 29.087 0.307361 29.0606 0.313804C28.9292 0.345852 28.7985 0.380308 28.6687 0.417172C28.6329 0.427298 28.5976 0.438646 28.5619 0.449135C28.468 0.476749 28.3743 0.504953 28.2813 0.535001C28.2339 0.550318 28.1869 0.56667 28.1398 0.582615C28.0588 0.609998 27.978 0.637894 27.8978 0.667113C27.8479 0.685283 27.7983 0.704036 27.7487 0.722912C27.6711 0.752434 27.5938 0.782806 27.517 0.814028C27.4679 0.833996 27.4188 0.854054 27.37 0.874716C27.2917 0.907886 27.2139 0.94231 27.1364 0.977254C27.091 0.997704 27.0455 1.01776 27.0004 1.03882C26.913 1.07961 26.8266 1.1221 26.7404 1.16513C26.7066 1.18202 26.6723 1.19809 26.6387 1.21532C26.6323 1.21857 26.6258 1.22153 26.6195 1.2248C26.5536 1.2587 26.489 1.29497 26.4238 1.33017C26.3707 1.35886 26.317 1.38651 26.2644 1.41606C26.1902 1.45772 26.1173 1.50166 26.0441 1.54502C25.9959 1.57352 25.9471 1.6009 25.8994 1.63013C25.8187 1.67961 25.7395 1.73145 25.6601 1.78297C25.6212 1.80822 25.5815 1.8323 25.5429 1.85803C25.4255 1.93629 25.3097 2.01675 25.1953 2.09942H28.8358C28.9501 2.01671 29.066 1.93625 29.1834 1.85803C29.222 1.83229 29.2617 1.80822 29.3006 1.78297Z" fill="#8F8F8F"/>
<path d="M25.3382 38.1288H21.6977C19.3626 38.1253 17.0618 37.5839 14.9857 36.5493C12.9095 35.5147 11.1176 34.0167 9.75817 32.1792C8.40536 30.3715 7.4928 28.2909 7.08887 26.0933H10.7294C11.1333 28.2909 12.0458 30.3715 13.3987 32.1792C14.7581 34.0167 16.55 35.5147 18.6261 36.5493C20.7023 37.5839 23.003 38.1253 25.3382 38.1288Z" fill="#858585"/>
<path d="M10.7294 26.0933H7.08894C6.69087 25.9929 6.2823 25.9366 5.87109 25.9256H9.51158C9.92279 25.9366 10.3314 25.9929 10.7294 26.0933Z" fill="#858585"/>
<path d="M35.3093 4.673e-05C36.2075 0.000521687 37.1021 0.109684 37.9723 0.324993C43.8528 1.77541 47.4316 7.66896 45.9658 13.4886C45.5791 15.0557 44.8345 16.519 43.7867 17.7711C42.7389 19.0231 41.4146 20.032 39.9111 20.7236C40.5907 24.3024 39.9041 27.9983 37.979 31.1238C36.9928 32.7144 36.585 32.3876 36.6041 34.3382L37.8114 38.8221C38.003 39.5351 37.553 40 36.9782 40C36.735 39.9958 36.4985 39.9218 36.2987 39.7875L32.4699 37.3101C31.9147 37.1364 31.5534 37.0658 31.2516 37.0658C30.6941 37.0658 30.3399 37.3067 29.343 37.5839C28.041 37.9457 26.6931 38.1291 25.3385 38.1288C23.0034 38.1253 20.7026 37.5839 18.6265 36.5493C16.5503 35.5147 14.7584 34.0168 13.399 32.1792C12.0462 30.3715 11.1336 28.2909 10.7297 26.0933C10.3316 25.9929 9.92303 25.9367 9.51183 25.9256L4.80129 26.8408C4.71634 26.8576 4.62987 26.8663 4.54316 26.8666C3.6962 26.8666 3.35873 25.9697 3.90897 25.2464L6.72572 21.546C7.34421 19.9828 6.99284 19.9487 6.65582 18.3676C5.39681 12.438 7.86027 6.09067 13.3205 2.62331C15.6071 1.16465 18.2649 0.344059 21.002 0.251638C23.739 0.159216 26.4494 0.798545 28.8356 2.09942C30.7026 0.741368 32.9738 0.00485301 35.3093 4.673e-05Z" fill="#E8E8E8"/>
<path d="M13.8404 2.30829C13.9806 2.22679 14.1217 2.14767 14.2635 2.07091C14.2874 2.05807 14.3113 2.04574 14.3352 2.03303C14.4437 1.97524 14.5529 1.91974 14.6622 1.8648C14.7353 1.82813 14.8084 1.79204 14.8818 1.75653C14.9697 1.71412 15.0579 1.6727 15.1464 1.63229C15.2201 1.59847 15.2938 1.56484 15.3678 1.53228C15.457 1.49304 15.5466 1.45523 15.6363 1.41782C15.7101 1.38703 15.7839 1.35616 15.858 1.32661C15.949 1.2903 16.0405 1.25568 16.1319 1.22123C16.2054 1.19357 16.2787 1.16556 16.3524 1.1391C16.4457 1.10561 16.5394 1.07405 16.6331 1.04248C16.7056 1.01804 16.7779 0.99298 16.8506 0.969684C16.9473 0.938711 17.0444 0.909967 17.1414 0.881004C17.2116 0.860046 17.2817 0.838183 17.3521 0.818279C17.4544 0.789342 17.5572 0.762931 17.6598 0.736203C17.7254 0.719133 17.7909 0.700874 17.8566 0.684702C17.9736 0.655913 18.091 0.629977 18.2084 0.604041C18.26 0.592637 18.3114 0.579839 18.3631 0.568981C18.5186 0.536324 18.6744 0.506674 18.8304 0.478963C18.8744 0.471144 18.9186 0.464084 18.9626 0.456657C19.0803 0.436831 19.198 0.418384 19.3159 0.401314C19.3631 0.394505 19.4102 0.387559 19.4574 0.381192C19.6038 0.361436 19.7503 0.343403 19.8969 0.327929C19.9082 0.326734 19.9196 0.32516 19.9309 0.323984C20.0884 0.307723 20.2459 0.294604 20.4035 0.283247C20.4489 0.279977 20.4943 0.277401 20.5397 0.274536C20.6577 0.267089 20.7758 0.261007 20.8938 0.256289C20.9402 0.254445 20.9865 0.252389 21.0328 0.250963C21.1906 0.2461 21.3484 0.242858 21.5061 0.242858H17.8656C17.708 0.242852 17.5501 0.246097 17.3923 0.250963C17.346 0.252389 17.2997 0.254445 17.2533 0.256289C17.1353 0.260999 17.0172 0.267081 16.8992 0.274536C16.8538 0.277401 16.8084 0.279984 16.763 0.283247C16.6054 0.294606 16.4477 0.307726 16.2902 0.324C16.2793 0.325124 16.2684 0.326646 16.2575 0.327797C16.1105 0.3433 15.9636 0.361385 15.8169 0.381192C15.7698 0.387547 15.7227 0.394472 15.6756 0.401276C15.5575 0.418341 15.4395 0.436822 15.3216 0.456721C15.2778 0.46411 15.234 0.471132 15.1902 0.478906C15.0381 0.50591 14.8862 0.534538 14.7347 0.566244C14.7306 0.567099 14.7266 0.568152 14.7225 0.569006C14.6715 0.57971 14.6208 0.592334 14.5699 0.603571C14.4518 0.629655 14.3337 0.655772 14.2159 0.684741C14.1507 0.700783 14.0858 0.718915 14.0207 0.735843C13.9175 0.762685 13.8143 0.789234 13.7114 0.818318C13.6412 0.838183 13.5713 0.860008 13.5012 0.880914C13.4041 0.909896 13.307 0.938659 13.2102 0.969659C13.1374 0.992967 13.065 1.01805 12.9925 1.04251C12.8989 1.07408 12.8052 1.10561 12.7119 1.13909C12.6382 1.16556 12.5649 1.19357 12.4914 1.22123C12.4 1.25567 12.3085 1.29029 12.2175 1.3266C12.1434 1.35616 12.0696 1.38702 11.9958 1.41781C11.9061 1.45522 11.8166 1.49302 11.7274 1.53227C11.6533 1.56483 11.5796 1.59845 11.5059 1.63228C11.4175 1.67288 11.3293 1.71429 11.2413 1.75653C11.1679 1.79193 11.0947 1.82802 11.0218 1.8648C10.9776 1.88698 10.933 1.90764 10.889 1.93028C10.824 1.96373 10.7594 1.99857 10.6947 2.03303C10.6708 2.04574 10.6469 2.05806 10.6231 2.07091C10.4812 2.14747 10.3401 2.22659 10.1999 2.30828C10.1692 2.32609 10.1387 2.34422 10.1081 2.36227C9.96454 2.44698 9.82156 2.53336 9.67984 2.6233C4.21964 6.09065 1.75618 12.438 3.0152 18.3676C3.35221 19.9487 3.70359 19.9828 3.08509 21.546L0.268345 25.2464C-0.281894 25.9697 0.0555732 26.8666 0.902532 26.8666H4.54301C3.69606 26.8666 3.35859 25.9697 3.90883 25.2464L6.72557 21.546C7.34408 19.9828 6.9927 19.9487 6.65568 18.3676C5.39667 12.438 7.86013 6.09065 13.3203 2.6233C13.462 2.53336 13.605 2.44698 13.7486 2.36227C13.7792 2.34423 13.8097 2.3261 13.8404 2.30829Z" fill="#858585"/>
</svg>
